#!OML:ASF H:\BreakDance\Project 1\Capture day 1\Session 1\Male.ASF
:FULLY-SPECIFIED
:DEGREES
2316
root 2.19526 7.06618 1.54621 -25.1997 34.3179 333.004
lowerback 26.7394 9.60084 3.79489
upperback 9.56438 13.4726 -4.32082
thorax -1.74254 7.10914 -10.3746
lowerneck -4.173 0.184341 0.385885
upperneck -1.35751 0.279007 -5.47707
head 0.291518 0.122591 -1.76194
rclavicle 4.77083e-014 -1.90833e-014
rhumerus 28.1874 14.2194 -54.6848
rradius 93.1252
rwrist -0.91937
rhand -22.3886 -362.427
rfingers 7.12502
rthumb 4.03356 327.631
lclavicle 4.77083e-014 -1.90833e-014
lhumerus 4.33688 33.4124 72.5084
lradius 5.91866
lwrist -19.3667
lhand -58.891 712.87
lfingers 7.12502
lthumb -31.0955 380.253
rfemur -89.2952 -39.8735 20.2013
rtibia 140.699
rfoot -34.7322 33.8576
rtoes -44.032
lfemur 239.148 55.0081 352.345
ltibia 151.111
lfoot -22.0022 -55.7341
ltoes -10.9949
2317
root 2.14914 7.22566 1.5957 -24.6717 35.2614 332.384
lowerback 27.0938 9.43925 3.70062
upperback 9.88921 13.2623 -3.96042
thorax -1.70424 6.99944 -9.91597
lowerneck -4.06828 -0.59184 0.282267
upperneck -2.19513 -0.786927 -3.88576
head -0.015522 -0.389779 -1.24837
rclavicle -1.49486e-013 1.27222e-014
rhumerus 25.1143 15.3047 -56.3157
rradius 94.4175
rwrist 2.29435
rhand -23.1043 -360.251
rfingers 7.12502
rthumb 3.34241 329.796
lclavicle -1.49486e-013 1.27222e-014
lhumerus 6.71006 32.1478 73.6428
lradius 4.17678
lwrist -18.3711
lhand -55.8902 715.323
lfingers 7.12502
lthumb -28.2313 383.216
rfemur -89.7326 -37.2683 21.6771
rtibia 139.746
rfoot -32.3667 32.0583
rtoes -44.3133
lfemur 240.815 51.6999 353.545
ltibia 149.972
lfoot -20.4004 -54.0389
ltoes -10.9484
2318
root 2.10124 7.39791 1.64357 -24.2478 36.2029 331.675
lowerback 27.3663 9.23554 3.6231
upperback 10.2551 13.0077 -3.57695
thorax -1.58753 6.87356 -9.40834
lowerneck -3.98107 -1.32925 0.0915492
upperneck -3.10405 -1.77136 -2.19146
head -0.313531 -0.868987 -0.694795
rclavicle -2.22639e-014 -1.11319e-014
rhumerus 22.0717 16.0307 -58.2012
rradius 95.1946
rwrist 5.40252
rhand -24.0575 -357.854
rfingers 7.12502
rthumb 2.4218 332.18
lclavicle -2.22639e-014 -1.11319e-014
lhumerus 9.10183 31.0228 74.6095
lradius 2.50526
lwrist -17.0744
lhand -52.3066 717.034
lfingers 7.12502
lthumb -24.8014 385.446
rfemur -89.7121 -34.8656 23.0123
rtibia 138.846
rfoot -30.199 29.9929
rtoes -44.5793
lfemur 242.628 48.0326 354.988
ltibia 148.734
lfoot -18.5688 -52.1348
ltoes -10.4945
2319
root 2.05266 7.58047 1.69051 -23.9138 37.102 330.892
lowerback 27.5997 8.97928 3.63011
upperback 10.609 12.7093 -3.18685
thorax -1.4515 6.72877 -8.92151
lowerneck -3.81949 -2.01907 -0.222966
upperneck -4.04348 -2.65984 -0.415433
head -0.6058 -1.30829 -0.104018
rclavicle 4.13472e-014 -2.38542e-014
rhumerus 19.0464 16.4183 -60.3182
rradius 95.5411
rwrist 8.12581
rhand -25.1001 -355.476
rfingers 7.12502
rthumb 1.41487 334.548
lclavicle 4.13472e-014 -2.38542e-014
lhumerus 11.2024 30.0326 75.2829
lradius 1.21271
lwrist -15.5846
lhand -48.0336 718.156
lfingers 7.12502
lthumb -20.7007 387.072
rfemur -89.3296 -32.4474 24.2799
rtibia 137.938
rfoot -28.2858 27.6249
rtoes -44.8266
lfemur 244.433 44.2749 356.499
ltibia 147.428
lfoot -16.9102 -50.0346
ltoes -9.84323
2320
root 2.00468 7.77055 1.73662 -23.6235 37.9483 330.068
lowerback 27.7958 8.69475 3.70208
upperback 10.9262 12.391 -2.79554
thorax -1.32435 6.57404 -8.46041
lowerneck -3.59278 -2.66382 -0.621811
upperneck -4.95959 -3.45959 1.38419
head -0.886554 -1.71235 0.513065
rclavicle 1.43125e-013 -1.43125e-014
rhumerus 16.0477 16.4435 -62.6022
rradius 95.5602
rwrist 10.3575
rhand -26.0965 -353.371
rfingers 7.12502
rthumb 0.452545 336.649
lclavicle 1.43125e-013 -1.43125e-014
lhumerus 12.7999 29.1357 75.675
lradius 0.61707
lwrist -14.1918
lhand -43.0509 718.921
lfingers 7.12502
lthumb -15.9073 388.288
rfemur -88.7026 -29.9171 25.493
rtibia 136.974
rfoot -26.6078 25.0169
rtoes -45.0315
lfemur 246.116 40.5935 357.95
ltibia 146.088
lfoot -15.5971 -47.7682
ltoes -9.16894
2321
root 1.95897 7.96711 1.78191 -23.3559 38.712 329.273
lowerback 28.0377 8.41755 3.84615
upperback 11.1749 12.0978 -2.43858
thorax -1.26237 6.42987 -8.0963
lowerneck -3.32506 -3.28454 -1.01189
upperneck -5.8057 -4.20739 3.16296
head -1.14379 -2.10021 1.14242
rclavicle -1.25632e-013 6.83819e-014
rhumerus 13.0265 16.0464 -65.0266
rradius 95.366
rwrist 12.1639
rhand -27.0254 -351.709
rfingers 7.12502
rthumb -0.444632 338.311
lclavicle -1.25632e-013 6.83819e-014
lhumerus 13.7485 28.213 75.8032
lradius 0.95122
lwrist -13.2552
lhand -37.4384 719.521
lfingers 7.12502
lthumb -10.4975 389.239
rfemur -87.8994 -27.1757 26.6055
rtibia 135.912
rfoot -25.1446 22.2808
rtoes -45.209
lfemur 247.742 37.1925 359.268
ltibia 144.722
lfoot -14.8805 -45.3821
ltoes -8.86312
2322
root 1.91483 8.16688 1.82623 -23.0445 39.4722 328.563
lowerback 28.3024 8.13968 4.00419
upperback 11.3526 11.8045 -2.12104
thorax -1.27511 6.28141 -7.79365
lowerneck -3.02831 -3.87881 -1.37841
upperneck -6.58416 -4.90592 4.88424
head -1.37719 -2.472 1.77025
rclavicle -4.77083e-014 6.83819e-014
rhumerus 10.0178 15.24 -67.4864
rradius 95.0595
rwrist 13.6888
rhand -27.9778 -350.5
rfingers 7.12502
rthumb -1.36443 339.524
lclavicle -4.77083e-014 6.83819e-014
lhumerus 13.9854 27.2489 75.724
lradius 2.30622
lwrist -13.0557
lhand -31.3649 719.977
lfingers 7.12502
lthumb -4.63547 389.906
rfemur -87.0669 -24.4148 27.5811
rtibia 134.765
rfoot -23.9323 19.5847
rtoes -45.3701
lfemur 249.286 33.8964 360.413
ltibia 143.337
lfoot -14.5934 -42.8376
ltoes -9.03737
2323
root 1.8732 8.36846 1.87037 -22.6418 40.2192 328.022
lowerback 28.543 7.88988 4.08482
upperback 11.4888 11.5255 -1.82406
thorax -1.32983 6.13429 -7.47479
lowerneck -2.69723 -4.43804 -1.7322
upperneck -7.32596 -5.54813 6.50517
head -1.59952 -2.82255 2.38379
rclavicle -8.42847e-014 6.83819e-014
rhumerus 7.07678 14.0707 -69.8468
rradius 94.7392
rwrist 15.0451
rhand -29.0487 -349.667
rfingers 7.12502
rthumb -2.39878 340.367
lclavicle -8.42847e-014 6.83819e-014
lhumerus 13.5864 26.2681 75.5033
lradius 4.55821
lwrist -13.6633
lhand -25.1846 720.07
lfingers 7.12502
lthumb 1.33324 390.045
rfemur -86.2511 -21.7113 28.3498
rtibia 133.55
rfoot -22.9621 17.0537
rtoes -45.5379
lfemur 250.776 30.7799 361.348
ltibia 141.94
lfoot -14.5864 -40.2293
ltoes -9.52602
2324
root 1.83442 8.57137 1.91459 -22.1449 40.9113 327.66
lowerback 28.7095 7.70734 4.01553
upperback 11.6268 11.2937 -1.50079
thorax -1.37475 6.00423 -7.0454
lowerneck -2.40932 -4.97349 -2.04683
upperneck -8.03504 -6.15598 7.95431
head -1.80192 -3.15966 2.94943
rclavicle 3.33958e-014 -2.22639e-014
rhumerus 4.27439 12.5907 -71.9686
rradius 94.4922
rwrist 16.2534
rhand -30.2665 -349.09
rfingers 7.12502
rthumb -3.57482 340.96
lclavicle 3.33958e-014 -2.22639e-014
lhumerus 12.836 25.3039 75.2751
lradius 7.34043
lwrist -14.8635
lhand -19.5173 719.545
lfingers 7.12502
lthumb 6.80583 389.415
rfemur -85.4668 -19.0635 28.9291
rtibia 132.275
rfoot -22.1666 14.7101
rtoes -45.6961
lfemur 252.259 27.9073 362.107
ltibia 140.519
lfoot -14.7694 -37.6521
ltoes -10.2032
2325
root 1.79871 8.77495 1.9587 -21.5732 41.5546 327.46
lowerback 28.7847 7.54925 3.827
upperback 11.7673 11.0626 -1.13696
thorax -1.40408 5.86914 -6.49372
lowerneck -2.10398 -5.45273 -2.44653
upperneck -8.70522 -6.68988 9.25084
head -1.9928 -3.4597 3.49405
rclavicle 1.19271e-013 -6.36111e-014
rhumerus 1.61059 10.9706 -73.8003
rradius 94.3857
rwrist 17.2306
rhand -31.6122 -348.661
rfingers 7.12502
rthumb -4.87425 341.415
lclavicle 1.19271e-013 -6.36111e-014
lhumerus 11.9404 24.4335 75.1445
lradius 10.2932
lwrist -16.2261
lhand -15.046 718.387
lfingers 7.12502
lthumb 11.1204 388.072
rfemur -84.7087 -16.5436 29.3396
rtibia 130.954
rfoot -21.5109 12.5365
rtoes -45.8264
lfemur 253.76 25.2418 362.719
ltibia 139.066
lfoot -15.065 -35.1594
ltoes -10.8565
2326
root 1.76719 8.97808 2.00175 -20.9528 42.1492 327.406
lowerback 28.7804 7.42847 3.55051
upperback 11.9103 10.8566 -0.750507
thorax -1.40796 5.74383 -5.86489
lowerneck -1.81693 -5.88488 -2.77576
upperneck -9.31629 -7.1704 10.3371
head -2.16688 -3.73346 3.96371
rclavicle 1.43125e-014 3.81667e-014
rhumerus -0.976589 9.20314 -75.3791
rradius 94.4789
rwrist 17.8592
rhand -33.0264 -348.34
rfingers 7.12502
rthumb -6.23968 341.772
lclavicle 1.43125e-014 3.81667e-014
lhumerus 10.5266 15.148 73.5124
lradius 13.3971
lwrist -9.08258
lhand -13.5662 718.273
lfingers 7.12502
lthumb 12.5473 387.876
rfemur -83.9434 -14.1998 29.5968
rtibia 129.597
rfoot -20.986 10.5001
rtoes -45.943
lfemur 255.288 22.7508 363.203
ltibia 137.575
lfoot -15.4299 -32.7811
ltoes -11.3363
